<svg width="38" height="38" viewBox="0 0 38 38" fill="none" xmlns="http://www.w3.org/2000/svg">
<path d="M28.779 0.0527954H8.35518C3.74034 0.0527954 0 3.79313 0 8.40798V28.8318C0 33.4466 3.74034 37.1869 8.35518 37.1869H28.779C33.3938 37.1869 37.1341 33.4466 37.1341 28.8318V8.40798C37.1341 3.79313 33.3938 0.0527954 28.779 0.0527954ZM30.8121 15.1423C31.4155 14.8832 32.1303 14.848 32.7337 15.0299C32.9844 15.1079 33.2072 15.2119 33.4207 15.3409V16.4828C32.7523 16.0242 31.9818 15.8942 31.3876 16.2145C30.7564 16.5608 30.385 17.2868 30.4036 18.048C30.3943 18.8872 30.6728 19.6652 31.2577 20.0282C31.7775 20.3828 32.5945 20.3828 33.4207 20.2528V21.2044C33.0958 21.3084 32.7523 21.3687 32.3995 21.4031C31.8147 21.4467 31.1648 21.3594 30.5893 21.0484C30.0044 20.7458 29.5773 20.2185 29.336 19.6903C29.1039 19.1453 29.0203 18.592 29.0111 18.0638C28.9832 16.9405 29.5866 15.6779 30.8121 15.1423ZM26.9223 12.1307C27.4347 12.1307 27.8506 12.5466 27.8506 13.059C27.8506 13.5715 27.4347 13.9874 26.9223 13.9874C26.4098 13.9874 25.9939 13.5715 25.9939 13.059C25.9939 12.5466 26.4098 12.1307 26.9223 12.1307ZM27.6185 14.9157V21.4142H26.226V14.9157H27.6185ZM20.4238 19.7107C21.0179 19.953 21.742 20.2046 22.3083 20.2584C22.8746 20.3215 23.4966 20.2491 23.8587 20.0514C24.0351 19.9437 24.0722 19.7933 24.0722 19.6262C24.0722 19.4591 24.0388 19.3644 23.958 19.2391C23.8104 19.0107 23.4038 18.838 22.7632 18.6849C22.4476 18.5948 22.1041 18.5048 21.7235 18.2987C21.3428 18.1278 20.5695 17.5077 20.7199 16.4503C20.8007 15.8849 21.3865 15.3316 22.2062 15.0736C23.1615 14.7718 24.2022 14.9213 25.0655 15.3344V16.4847C24.295 16.0892 23.3759 15.8896 22.5961 16.1495C22.364 16.221 22.0577 16.3825 22.0577 16.6731C22.0577 17.3703 22.8654 17.5021 23.1717 17.6015C23.4873 17.6999 23.8308 17.7899 24.2022 17.9784C24.5735 18.1585 25.3181 18.6078 25.3181 19.6336C25.3181 20.6158 24.8335 20.977 24.4343 21.1385C23.608 21.4978 22.8746 21.4346 22.1598 21.3362C21.5564 21.2285 20.9715 21.0484 20.4238 20.7077V19.7107ZM14.1574 14.9176L15.5499 14.9157L15.5527 17.1624C15.5657 17.8958 15.5638 18.6951 15.5555 19.3746C15.523 19.7376 15.9287 20.1609 16.4616 20.2259C16.7456 20.2575 16.9573 20.2343 17.2841 20.096C17.4772 20.0198 17.674 19.9548 17.8708 19.8871V14.9157L19.2633 14.9167V21.2462H17.8708V21.0271C17.8327 21.0475 17.7965 21.0698 17.7594 21.0893C17.4057 21.301 16.8385 21.4476 16.3539 21.4077C15.8507 21.3752 15.3438 21.1988 14.9307 20.8637C14.5204 20.5332 14.2103 20.0143 14.1704 19.4442C14.1453 18.6273 14.1518 17.9273 14.1602 17.1633L14.1574 14.9176ZM3.9455 14.9157H5.33803V15.5544C5.68152 15.43 6.02223 15.3001 6.36758 15.1822C6.86425 15.0058 7.48717 15.0411 7.97641 15.3131C8.1788 15.4217 8.35611 15.5749 8.51207 15.7485C9.03381 15.5554 9.55462 15.3613 10.0801 15.1812C10.5767 15.0049 11.1997 15.0401 11.6889 15.3121C12.1828 15.5777 12.5671 16.0632 12.7036 16.6285C12.7398 16.7697 12.7556 16.9126 12.7639 17.0565L12.7676 17.3508L12.7732 17.931L12.7676 19.0915L12.7649 21.4124H11.3723L11.3668 16.9154C11.3278 16.5209 10.8849 16.1755 10.4208 16.3018C9.94731 16.4271 9.47014 16.5385 8.99389 16.6536C9.02545 16.7864 9.04216 16.9201 9.05052 17.0556L9.05423 17.3499L9.0598 17.9301L9.05423 19.0905L9.05145 21.4114H7.65892L7.65335 16.9145C7.61436 16.519 7.17153 16.1746 6.70736 16.3008C6.25339 16.4215 5.79478 16.5283 5.33803 16.6388V21.4105H3.9455V14.9157ZM31.3486 26.9119C29.2933 28.3694 26.9965 29.3303 24.5856 29.9541C22.1765 30.5696 19.6681 30.8027 17.1718 30.6309C14.6763 30.4638 12.2394 29.8548 9.94267 28.9654C7.65335 28.0464 5.48936 26.8646 3.57695 25.3161C3.47761 25.2353 3.46183 25.0886 3.5426 24.9893C3.61408 24.9011 3.73662 24.8788 3.83317 24.9308L3.84617 24.9382C5.93404 26.0681 8.1658 26.9333 10.4068 27.6203C12.6655 28.2627 14.9641 28.7222 17.2767 28.816C19.5836 28.8967 21.9156 28.7166 24.192 28.2432C26.459 27.7753 28.7455 27.0957 30.8483 26.1275L30.8845 26.1108C31.1175 26.004 31.3923 26.1052 31.5 26.3382C31.5965 26.5452 31.5278 26.7857 31.3486 26.9119ZM32.3828 29.6598C32.1248 29.8548 31.8667 29.7898 31.9957 29.4649C32.3828 28.4251 33.2211 26.2147 32.834 25.6949C32.3828 25.11 30.061 25.4349 29.0296 25.5649C28.7075 25.5649 28.7075 25.3049 28.9656 25.11C29.8679 24.4601 31.0933 24.2002 32.1257 24.2002C33.1571 24.2002 34.0604 24.3952 34.2535 24.7201C34.5747 25.1091 34.1235 28.1643 32.3828 29.6598Z" fill="#3E6FE1"/>
</svg>
