<svg width="38" height="38" viewBox="0 0 38 38" fill="none" xmlns="http://www.w3.org/2000/svg">
<path fill-rule="evenodd" clip-rule="evenodd" d="M36.4241 32.2008C36.0649 33.1173 35.2352 34.4054 34.0462 35.3218C33.365 35.842 32.5476 36.3498 31.433 36.6842C30.244 37.0434 28.7702 37.1548 26.9372 37.1548H10.2176C8.3846 37.1548 6.92318 37.031 5.72184 36.6842C4.6072 36.3498 3.78979 35.8544 3.10862 35.3218C1.93205 34.4178 1.08987 33.1173 0.730711 32.2008C0.0123849 30.3555 0 28.2624 0 26.9372V10.2176C0 8.89239 0.0123849 6.79933 0.730711 4.95398C1.08987 4.03749 1.91967 2.74946 3.10862 1.83297C3.78979 1.3128 4.6072 0.805021 5.72184 0.470628C6.92318 0.123849 8.3846 0 10.2176 0H26.9372C28.7702 0 30.2316 0.123849 31.433 0.470628C32.5476 0.805021 33.365 1.30042 34.0462 1.83297C35.2228 2.73707 36.0649 4.03749 36.4241 4.95398C37.1548 6.79933 37.1548 8.90477 37.1548 10.2176V26.9372C37.1548 28.2624 37.1424 30.3555 36.4241 32.2008Z" fill="url(#paint0_linear_52_326)"/>
<path d="M21.7603 22.4291C21.7108 21.9832 21.5622 21.6612 21.265 21.364C20.7076 20.7819 19.7292 20.3979 18.5774 20.3979C17.4256 20.3979 16.4472 20.7695 15.8899 21.364C15.605 21.6736 15.444 21.9832 15.3945 22.4291C15.2954 23.296 15.3573 24.0391 15.4564 25.2405C15.5555 26.3799 15.7413 27.9032 15.9766 29.439C16.15 30.5412 16.2862 31.1357 16.4101 31.5568C16.6206 32.2503 17.3761 32.8448 18.5774 32.8448C19.7788 32.8448 20.5466 32.238 20.7448 31.5568C20.8686 31.1357 21.0049 30.5412 21.1783 29.439C21.4136 27.8908 21.5993 26.3799 21.6984 25.2405C21.8099 24.0391 21.8594 23.296 21.7603 22.4291Z" fill="white"/>
<path d="M21.6242 16.1128C21.6242 17.7971 20.2618 19.1595 18.5775 19.1595C16.8931 19.1595 15.5308 17.7971 15.5308 16.1128C15.5308 14.4284 16.8931 13.0661 18.5775 13.0661C20.2618 13.0661 21.6242 14.4408 21.6242 16.1128Z" fill="white"/>
<path d="M18.5403 4.11177C11.4313 4.13654 5.61042 9.90793 5.51134 17.0169C5.43703 22.7759 9.11536 27.7051 14.2551 29.5133C14.379 29.5628 14.5028 29.4514 14.4904 29.3275C14.4285 28.8817 14.3542 28.4358 14.3047 27.9899C14.2799 27.8289 14.1808 27.7051 14.0446 27.6308C9.98231 25.8597 7.14616 21.7851 7.1957 17.0664C7.25762 10.874 12.3107 5.83328 18.4908 5.78374C24.8195 5.7342 29.984 10.8616 29.984 17.1779C29.984 21.847 27.1602 25.8597 23.1351 27.6308C22.9865 27.6927 22.8874 27.8289 22.875 27.9899C22.8131 28.4358 22.7512 28.8817 22.6893 29.3275C22.6645 29.4637 22.8007 29.5628 22.9246 29.5133C28.0148 27.7299 31.6683 22.875 31.6683 17.1779C31.6436 9.96985 25.7607 4.09939 18.5403 4.11177Z" fill="white"/>
<path d="M18.2431 8.44639C13.6111 8.61978 9.89561 12.4467 9.83369 17.0787C9.79653 20.1254 11.3199 22.8253 13.6606 24.423C13.7721 24.4973 13.9331 24.4106 13.9331 24.2743C13.8959 23.7418 13.8959 23.2712 13.9207 22.7758C13.9331 22.6148 13.8712 22.4661 13.7473 22.3547C12.3231 21.0171 11.4561 19.1098 11.5057 17.0044C11.6047 13.2889 14.5895 10.267 18.305 10.1184C22.3425 9.95735 25.6616 13.2022 25.6616 17.1902C25.6616 19.2213 24.7947 21.0543 23.42 22.3547C23.3085 22.4661 23.2466 22.6148 23.2466 22.7758C23.2713 23.2588 23.259 23.7294 23.2342 24.262C23.2218 24.3982 23.3828 24.4973 23.5067 24.4106C25.8103 22.8377 27.3336 20.1749 27.3336 17.1778C27.346 12.2486 23.2218 8.24823 18.2431 8.44639Z" fill="white"/>
<defs>
<linearGradient id="paint0_linear_52_326" x1="18.5774" y1="0" x2="18.5774" y2="37.1548" gradientUnits="userSpaceOnUse">
<stop stop-color="#F452FF"/>
<stop offset="1" stop-color="#832BC1"/>
</linearGradient>
</defs>
</svg>
