<svg width="38" height="38" viewBox="0 0 38 38" fill="none" xmlns="http://www.w3.org/2000/svg">
<path d="M29.5665 16.4692C23.5782 12.9129 13.7007 12.586 7.98414 14.321C7.0659 14.5995 6.09525 14.0814 5.81723 13.1633C5.53905 12.2447 6.05665 11.2746 6.97522 10.9956C13.5377 9.0037 24.4462 9.38837 31.3401 13.4806C32.166 13.9709 32.4365 15.0372 31.9472 15.8615C31.4574 16.6872 30.3901 16.9596 29.5663 16.4692M29.3703 21.7364C28.9502 22.4182 28.0588 22.632 27.378 22.2134C22.3858 19.1448 14.7729 18.2556 8.86644 20.0485C8.1006 20.2798 7.29151 19.8482 7.05891 19.0835C6.94803 18.7159 6.98743 18.3194 7.16848 17.9808C7.34953 17.6422 7.65745 17.3892 8.02473 17.2773C14.7719 15.2297 23.1598 16.2213 28.8938 19.7452C29.5746 20.1645 29.7889 21.0563 29.3703 21.7364ZM27.0971 26.795C27.018 26.9249 26.914 27.038 26.7911 27.1278C26.6683 27.2175 26.5289 27.2821 26.381 27.3179C26.2331 27.3537 26.0796 27.3599 25.9293 27.3363C25.779 27.3127 25.6348 27.2597 25.505 27.1803C21.1426 24.5141 15.6517 23.912 9.18505 25.3891C9.03688 25.423 8.88349 25.4273 8.73363 25.4019C8.58377 25.3765 8.44039 25.3218 8.31168 25.241C8.18296 25.1601 8.07143 25.0547 7.98345 24.9308C7.89548 24.8068 7.83279 24.6668 7.79896 24.5186C7.76489 24.3704 7.7604 24.2169 7.78573 24.0669C7.81107 23.917 7.86574 23.7735 7.94662 23.6447C8.0275 23.5159 8.13299 23.4043 8.25705 23.3163C8.38111 23.2283 8.52131 23.1657 8.66961 23.132C15.7462 21.5145 21.8163 22.2106 26.713 25.2027C26.8428 25.282 26.9557 25.3861 27.0452 25.5091C27.1348 25.632 27.1993 25.7714 27.235 25.9192C27.2707 26.0671 27.2769 26.2205 27.2532 26.3708C27.2296 26.5211 27.1766 26.6652 27.0973 26.795M18.5771 0C8.31756 0 0 8.31723 0 18.5771C0 28.8379 8.31756 37.1548 18.5772 37.1548C28.8374 37.1548 37.1548 28.8379 37.1548 18.5771C37.1548 8.31739 28.8376 0 18.5772 0" fill="#1ED760"/>
</svg>
