<svg width="41" height="30" viewBox="0 0 41 30" fill="none" xmlns="http://www.w3.org/2000/svg">
<path fill-rule="evenodd" clip-rule="evenodd" d="M36.4974 1.45828C38.2639 1.93535 39.6523 3.32734 40.1217 5.09184C40.9756 8.29409 40.9756 14.9796 40.9756 14.9796C40.9756 14.9796 40.9756 21.6651 40.1217 24.8673C39.6458 26.6384 38.2574 28.0303 36.4974 28.5009C33.3033 29.357 20.4878 29.357 20.4878 29.357C20.4878 29.357 7.67885 29.357 4.47825 28.5009C2.71172 28.0238 1.32327 26.6318 0.85393 24.8673C0 21.6651 0 14.9796 0 14.9796C0 14.9796 0 8.29409 0.85393 5.09184C1.32978 3.32081 2.71824 1.92882 4.47825 1.45828C7.67885 0.602173 20.4878 0.602173 20.4878 0.602173C20.4878 0.602173 33.3033 0.602173 36.4974 1.45828ZM27.039 14.9796L16.3942 21.1423V8.8169L27.039 14.9796Z" fill="#FF3000"/>
</svg>
