<svg version="1.1" id="Layer_1" xmlns="http://www.w3.org/2000/svg" xmlns:xlink="http://www.w3.org/1999/xlink" x="0px" y="0px"
	 width="100%" viewBox="0 0 512 512" enable-background="new 0 0 512 512" xml:space="preserve">
<path fill="#000000" opacity="1.000000" stroke="none" 
	d="
M513.000000,89.000000 
	C513.000000,200.688675 513.000000,312.377350 512.609985,424.675049 
	C509.638580,434.539154 507.823425,444.098175 504.300018,452.979492 
	C498.731873,467.015015 489.442810,478.619080 478.008667,488.572144 
	C466.995605,498.158752 454.483398,504.824738 440.578705,508.970337 
	C435.441925,510.501831 430.196106,511.667511 425.000000,513.000000 
	C313.311310,513.000000 201.622650,513.000000 89.324936,512.609985 
	C87.062508,512.134338 85.346550,512.307068 83.765144,511.924133 
	C61.898239,506.629333 42.559963,497.112335 27.245819,479.929047 
	C15.828039,467.117584 7.916703,452.772980 3.907072,436.145264 
	C3.462977,434.303589 1.993777,432.709106 1.000001,431.000000 
	C1.000000,317.311310 1.000000,203.622650 1.390027,89.324936 
	C4.361373,79.460846 6.176523,69.901840 9.699932,61.020527 
	C15.268123,46.985020 24.557127,35.380920 35.991253,25.427834 
	C47.004318,15.841266 59.516563,9.175273 73.421242,5.029641 
	C78.558022,3.498128 83.803886,2.332500 89.000000,1.000000 
	C200.688675,1.000000 312.377350,1.000000 424.675049,1.390024 
	C434.539154,4.361369 444.098175,6.176509 452.979492,9.699935 
	C467.014984,15.268145 478.619110,24.557114 488.572205,35.991257 
	C498.158722,47.004356 504.824799,59.516563 508.970367,73.421288 
	C510.501831,78.558060 511.667511,83.803902 513.000000,89.000000 
M142.500000,492.000000 
	C232.807449,492.000000 323.114899,492.013062 413.422333,491.955627 
	C417.334686,491.953125 421.346985,491.742828 425.141785,490.878601 
	C443.867950,486.613770 459.981537,478.083374 472.637848,463.046143 
	C484.935425,448.435120 491.787018,431.729492 491.845093,412.988281 
	C492.167938,308.852234 492.011353,204.714630 491.955841,100.577591 
	C491.953735,96.665276 491.742767,92.652931 490.878571,88.858131 
	C486.613922,70.131874 478.083191,54.018475 463.046021,41.362148 
	C448.435059,29.064520 431.729401,22.212954 412.988190,22.154858 
	C308.852112,21.832045 204.714539,21.988626 100.577492,22.044168 
	C96.665184,22.046255 92.652855,22.257250 88.858063,23.121447 
	C70.131760,27.386040 54.018398,35.916874 41.362076,50.954018 
	C29.064463,65.564987 22.212950,82.270691 22.154854,101.011887 
	C21.832045,205.147949 21.988623,309.285553 22.044172,413.422577 
	C22.046259,417.334900 22.248899,421.350403 23.123028,425.141449 
	C27.393217,443.661163 35.723801,459.688202 50.588280,472.297241 
	C66.004189,485.374054 83.610985,491.611023 103.511520,491.958588 
	C116.170731,492.179688 128.836929,492.000000 142.500000,492.000000 
z"/>
<path fill="#FFFFFF" opacity="1.000000" stroke="none" 
	d="
M88.531342,1.000000 
	C83.803886,2.332500 78.558022,3.498128 73.421242,5.029641 
	C59.516563,9.175273 47.004318,15.841266 35.991253,25.427834 
	C24.557127,35.380920 15.268123,46.985020 9.699932,61.020527 
	C6.176523,69.901840 4.361373,79.460846 1.390027,88.857956 
	C1.000000,59.739754 1.000000,30.479509 1.000000,1.000000 
	C30.020527,1.000000 59.041603,1.000000 88.531342,1.000000 
z"/>
<path fill="#FFFFFF" opacity="1.000000" stroke="none" 
	d="
M513.000000,88.531342 
	C511.667511,83.803902 510.501831,78.558060 508.970367,73.421288 
	C504.824799,59.516563 498.158722,47.004356 488.572205,35.991257 
	C478.619110,24.557114 467.014984,15.268145 452.979492,9.699935 
	C444.098175,6.176509 434.539154,4.361369 425.142029,1.390024 
	C454.260223,1.000000 483.520477,1.000000 513.000000,1.000000 
	C513.000000,30.020527 513.000000,59.041603 513.000000,88.531342 
z"/>
<path fill="#FFFFFF" opacity="1.000000" stroke="none" 
	d="
M425.468658,513.000000 
	C430.196106,511.667511 435.441925,510.501831 440.578705,508.970337 
	C454.483398,504.824738 466.995605,498.158752 478.008667,488.572144 
	C489.442810,478.619080 498.731873,467.015015 504.300018,452.979492 
	C507.823425,444.098175 509.638580,434.539154 512.609985,425.142029 
	C513.000000,454.260223 513.000000,483.520477 513.000000,513.000000 
	C483.979462,513.000000 454.958405,513.000000 425.468658,513.000000 
z"/>
<path fill="#FFFFFF" opacity="1.000000" stroke="none" 
	d="
M1.000001,431.468658 
	C1.993777,432.709106 3.462977,434.303589 3.907072,436.145264 
	C7.916703,452.772980 15.828039,467.117584 27.245819,479.929047 
	C42.559963,497.112335 61.898239,506.629333 83.765144,511.924133 
	C85.346550,512.307068 87.062508,512.134338 88.857956,512.609985 
	C59.742344,513.000000 30.484690,513.000000 1.000000,513.000000 
	C1.000000,485.979523 1.000000,458.958435 1.000001,431.468658 
z"/>
<path fill="#FFFFFF" opacity="1.000000" stroke="none" 
	d="
M142.000000,492.000000 
	C128.836929,492.000000 116.170731,492.179688 103.511520,491.958588 
	C83.610985,491.611023 66.004189,485.374054 50.588280,472.297241 
	C35.723801,459.688202 27.393217,443.661163 23.123028,425.141449 
	C22.248899,421.350403 22.046259,417.334900 22.044172,413.422577 
	C21.988623,309.285553 21.832045,205.147949 22.154854,101.011887 
	C22.212950,82.270691 29.064463,65.564987 41.362076,50.954018 
	C54.018398,35.916874 70.131760,27.386040 88.858063,23.121447 
	C92.652855,22.257250 96.665184,22.046255 100.577492,22.044168 
	C204.714539,21.988626 308.852112,21.832045 412.988190,22.154858 
	C431.729401,22.212954 448.435059,29.064520 463.046021,41.362148 
	C478.083191,54.018475 486.613922,70.131874 490.878571,88.858131 
	C491.742767,92.652931 491.953735,96.665276 491.955841,100.577591 
	C492.011353,204.714630 492.167938,308.852234 491.845093,412.988281 
	C491.787018,431.729492 484.935425,448.435120 472.637848,463.046143 
	C459.981537,478.083374 443.867950,486.613770 425.141785,490.878601 
	C421.346985,491.742828 417.334686,491.953125 413.422333,491.955627 
	C323.114899,492.013062 232.807449,492.000000 142.000000,492.000000 
M185.000000,218.500000 
	C185.000000,288.646088 185.051620,358.792297 184.927933,428.938171 
	C184.914078,436.795624 188.518188,442.007233 198.061035,442.003479 
	C223.720261,441.993408 249.379501,442.007202 275.038727,441.996155 
	C284.451447,441.992126 288.108612,436.867126 288.076660,428.838257 
	C287.911560,387.350952 287.968872,345.862549 288.044098,304.374725 
	C288.052399,299.800232 288.317841,295.166779 289.087311,290.667267 
	C290.211060,284.095703 292.478607,277.494904 297.633606,273.276428 
	C305.999908,266.430054 315.945190,266.071747 325.589172,270.350922 
	C335.242157,274.634094 337.854767,283.689575 337.901489,293.166077 
	C338.122314,337.985321 338.070496,382.806488 337.943512,427.626465 
	C337.916443,437.172455 344.310974,442.249176 352.324432,442.133545 
	C377.478577,441.770538 402.641266,442.001648 427.800659,441.999176 
	C438.018524,441.998169 441.998535,438.034821 441.999115,427.856445 
	C442.001343,388.201263 441.970306,348.546051 442.014984,308.890930 
	C442.032227,293.612030 441.417236,278.440247 438.065521,263.420868 
	C432.865082,240.117065 422.460663,219.998444 403.444122,204.997238 
	C386.769531,191.843475 367.550903,185.588013 346.463898,185.075729 
	C340.062500,184.920212 333.535217,185.065750 327.252472,186.153183 
	C319.547943,187.486679 311.897339,189.536957 304.492676,192.065735 
	C298.862549,193.988510 293.652802,197.142288 288.141602,199.803619 
	C288.089325,199.026749 288.015625,198.368332 288.005066,197.708893 
	C287.861298,188.708145 284.109711,185.003189 275.094788,185.001602 
	C249.102310,184.997070 223.109833,184.987839 197.117371,185.007446 
	C189.336349,185.013321 185.044693,189.283005 185.006989,197.005966 
	C184.973633,203.837173 185.000000,210.668640 185.000000,218.500000 
M72.000000,309.500000 
	C72.000000,348.997772 72.022949,388.495605 71.983658,427.993317 
	C71.973991,437.714661 76.334061,442.019043 85.841980,442.008942 
	C110.840630,441.982391 135.842239,441.774902 160.836685,442.099396 
	C172.521042,442.251068 176.058685,434.691284 176.048706,426.848358 
	C175.963623,360.018707 176.000000,293.188873 176.000000,226.359100 
	C176.000000,217.192917 176.305405,208.013687 175.914215,198.864227 
	C175.522034,189.691345 172.974884,184.807266 162.117096,184.917740 
	C136.787735,185.175491 111.451492,185.202377 86.123322,184.891785 
	C77.086830,184.780960 71.929810,188.434753 71.959938,199.005936 
	C72.063980,235.503708 72.000000,272.001953 72.000000,309.500000 
M175.000015,133.437958 
	C174.666275,129.207428 174.800217,124.876183 173.914658,120.764496 
	C170.747284,106.058128 162.438721,95.281403 148.912216,88.325897 
	C139.242188,83.353439 129.072662,82.418549 118.550713,83.009628 
	C102.874779,83.890221 90.188240,90.558723 81.028191,103.305069 
	C74.012245,113.067848 71.666138,124.023575 72.881371,136.125153 
	C74.709030,154.325348 83.739319,167.365143 99.863403,175.245621 
	C112.757645,181.547546 126.256508,181.449600 140.257706,178.185623 
	C159.712402,173.650360 175.146393,153.760132 175.000015,133.437958 
z"/>
<path fill="#000000" opacity="1.000000" stroke="none" 
	d="
M185.000000,218.000000 
	C185.000000,210.668640 184.973633,203.837173 185.006989,197.005966 
	C185.044693,189.283005 189.336349,185.013321 197.117371,185.007446 
	C223.109833,184.987839 249.102310,184.997070 275.094788,185.001602 
	C284.109711,185.003189 287.861298,188.708145 288.005066,197.708893 
	C288.015625,198.368332 288.089325,199.026749 288.141602,199.803619 
	C293.652802,197.142288 298.862549,193.988510 304.492676,192.065735 
	C311.897339,189.536957 319.547943,187.486679 327.252472,186.153183 
	C333.535217,185.065750 340.062500,184.920212 346.463898,185.075729 
	C367.550903,185.588013 386.769531,191.843475 403.444122,204.997238 
	C422.460663,219.998444 432.865082,240.117065 438.065521,263.420868 
	C441.417236,278.440247 442.032227,293.612030 442.014984,308.890930 
	C441.970306,348.546051 442.001343,388.201263 441.999115,427.856445 
	C441.998535,438.034821 438.018524,441.998169 427.800659,441.999176 
	C402.641266,442.001648 377.478577,441.770538 352.324432,442.133545 
	C344.310974,442.249176 337.916443,437.172455 337.943512,427.626465 
	C338.070496,382.806488 338.122314,337.985321 337.901489,293.166077 
	C337.854767,283.689575 335.242157,274.634094 325.589172,270.350922 
	C315.945190,266.071747 305.999908,266.430054 297.633606,273.276428 
	C292.478607,277.494904 290.211060,284.095703 289.087311,290.667267 
	C288.317841,295.166779 288.052399,299.800232 288.044098,304.374725 
	C287.968872,345.862549 287.911560,387.350952 288.076660,428.838257 
	C288.108612,436.867126 284.451447,441.992126 275.038727,441.996155 
	C249.379501,442.007202 223.720261,441.993408 198.061035,442.003479 
	C188.518188,442.007233 184.914078,436.795624 184.927933,428.938171 
	C185.051620,358.792297 185.000000,288.646088 185.000000,218.000000 
M310.459229,212.956253 
	C308.465088,213.982620 306.427521,214.933304 304.484467,216.048676 
	C296.751495,220.487640 290.982056,226.996002 285.525391,233.891708 
	C282.392151,237.851242 278.221344,239.235229 273.435059,236.964828 
	C269.098816,234.907852 266.759277,231.605515 266.940918,226.492661 
	C267.180969,219.736389 267.000000,212.965149 267.000000,206.288177 
	C246.351669,206.288177 226.282700,206.288177 206.273956,206.288177 
	C206.273956,277.636200 206.273956,348.695740 206.273956,419.726898 
	C226.617874,419.726898 246.686646,419.726898 267.000000,419.726898 
	C267.000000,417.648651 267.000000,415.841217 267.000000,414.033752 
	C267.000000,374.210236 266.936279,334.386475 267.088623,294.563538 
	C267.105774,290.084259 267.870300,285.473969 269.105011,281.158081 
	C272.948578,267.722748 280.150299,256.567902 293.197937,250.444183 
	C303.325378,245.690994 314.154022,244.861252 325.005707,247.581604 
	C329.912109,248.811539 335.016754,250.334137 339.248383,252.977554 
	C354.573059,262.550629 359.666016,277.888641 359.855438,294.740265 
	C360.304810,334.725372 360.000000,374.718903 360.000000,414.709045 
	C360.000000,416.453339 360.000000,418.197601 360.000000,419.638367 
	C380.462952,419.638367 400.200348,419.638367 420.000000,419.638367 
	C420.000000,379.788269 419.894196,340.299286 420.061920,300.811493 
	C420.115021,288.308411 419.422943,275.965149 415.995544,263.887665 
	C409.868317,242.296753 398.501221,224.574844 377.771515,214.450760 
	C364.673248,208.053787 350.748962,205.490753 335.960083,206.813278 
	C327.293976,207.588242 319.012665,209.039444 310.459229,212.956253 
z"/>
<path fill="#000000" opacity="1.000000" stroke="none" 
	d="
M72.000000,309.000000 
	C72.000000,272.001953 72.063980,235.503708 71.959938,199.005936 
	C71.929810,188.434753 77.086830,184.780960 86.123322,184.891785 
	C111.451492,185.202377 136.787735,185.175491 162.117096,184.917740 
	C172.974884,184.807266 175.522034,189.691345 175.914215,198.864227 
	C176.305405,208.013687 176.000000,217.192917 176.000000,226.359100 
	C176.000000,293.188873 175.963623,360.018707 176.048706,426.848358 
	C176.058685,434.691284 172.521042,442.251068 160.836685,442.099396 
	C135.842239,441.774902 110.840630,441.982391 85.841980,442.008942 
	C76.334061,442.019043 71.973991,437.714661 71.983658,427.993317 
	C72.022949,388.495605 72.000000,348.997772 72.000000,309.000000 
M154.000000,354.500000 
	C154.000000,305.074341 154.000000,255.648712 154.000000,206.286621 
	C133.692566,206.286621 113.954727,206.286621 94.284142,206.286621 
	C94.284142,277.640991 94.284142,348.708344 94.284142,419.713379 
	C114.307434,419.713379 134.045288,419.713379 154.000000,419.713379 
	C154.000000,398.118317 154.000000,376.809143 154.000000,354.500000 
z"/>
<path fill="#000000" opacity="1.000000" stroke="none" 
	d="
M175.000000,133.916916 
	C175.146393,153.760132 159.712402,173.650360 140.257706,178.185623 
	C126.256508,181.449600 112.757645,181.547546 99.863403,175.245621 
	C83.739319,167.365143 74.709030,154.325348 72.881371,136.125153 
	C71.666138,124.023575 74.012245,113.067848 81.028191,103.305069 
	C90.188240,90.558723 102.874779,83.890221 118.550713,83.009628 
	C129.072662,82.418549 139.242188,83.353439 148.912216,88.325897 
	C162.438721,95.281403 170.747284,106.058128 173.914658,120.764496 
	C174.800217,124.876183 174.666275,129.207428 175.000000,133.916916 
M144.643906,152.033890 
	C146.052902,150.561249 147.669250,149.235825 148.836594,147.591614 
	C155.417923,138.321655 156.017227,127.638092 150.009140,117.659035 
	C142.808182,105.698662 131.142471,102.520576 118.301186,104.217201 
	C110.143066,105.295074 102.808853,108.893448 97.855011,116.466293 
	C90.598076,127.559837 93.948769,144.303207 103.919914,152.742554 
	C112.871185,160.318726 135.122009,161.719437 144.643906,152.033890 
z"/>
<path fill="#FFFFFF" opacity="1.000000" stroke="none" 
	d="
M310.754150,212.696259 
	C319.012665,209.039444 327.293976,207.588242 335.960083,206.813278 
	C350.748962,205.490753 364.673248,208.053787 377.771515,214.450760 
	C398.501221,224.574844 409.868317,242.296753 415.995544,263.887665 
	C419.422943,275.965149 420.115021,288.308411 420.061920,300.811493 
	C419.894196,340.299286 420.000000,379.788269 420.000000,419.638367 
	C400.200348,419.638367 380.462952,419.638367 360.000000,419.638367 
	C360.000000,418.197601 360.000000,416.453339 360.000000,414.709045 
	C360.000000,374.718903 360.304810,334.725372 359.855438,294.740265 
	C359.666016,277.888641 354.573059,262.550629 339.248383,252.977554 
	C335.016754,250.334137 329.912109,248.811539 325.005707,247.581604 
	C314.154022,244.861252 303.325378,245.690994 293.197937,250.444183 
	C280.150299,256.567902 272.948578,267.722748 269.105011,281.158081 
	C267.870300,285.473969 267.105774,290.084259 267.088623,294.563538 
	C266.936279,334.386475 267.000000,374.210236 267.000000,414.033752 
	C267.000000,415.841217 267.000000,417.648651 267.000000,419.726898 
	C246.686646,419.726898 226.617874,419.726898 206.273956,419.726898 
	C206.273956,348.695740 206.273956,277.636200 206.273956,206.288177 
	C226.282700,206.288177 246.351669,206.288177 267.000000,206.288177 
	C267.000000,212.965149 267.180969,219.736389 266.940918,226.492661 
	C266.759277,231.605515 269.098816,234.907852 273.435059,236.964828 
	C278.221344,239.235229 282.392151,237.851242 285.525391,233.891708 
	C290.982056,226.996002 296.751495,220.487640 304.484467,216.048676 
	C306.427521,214.933304 308.465088,213.982620 310.754150,212.696259 
z"/>
<path fill="#FFFFFF" opacity="1.000000" stroke="none" 
	d="
M154.000000,355.000000 
	C154.000000,376.809143 154.000000,398.118317 154.000000,419.713379 
	C134.045288,419.713379 114.307434,419.713379 94.284142,419.713379 
	C94.284142,348.708344 94.284142,277.640991 94.284142,206.286621 
	C113.954727,206.286621 133.692566,206.286621 154.000000,206.286621 
	C154.000000,255.648712 154.000000,305.074341 154.000000,355.000000 
z"/>
<path fill="#FFFFFF" opacity="1.000000" stroke="none" 
	d="
M144.337906,152.247253 
	C135.122009,161.719437 112.871185,160.318726 103.919914,152.742554 
	C93.948769,144.303207 90.598076,127.559837 97.855011,116.466293 
	C102.808853,108.893448 110.143066,105.295074 118.301186,104.217201 
	C131.142471,102.520576 142.808182,105.698662 150.009140,117.659035 
	C156.017227,127.638092 155.417923,138.321655 148.836594,147.591614 
	C147.669250,149.235825 146.052902,150.561249 144.337906,152.247253 
z"/>
</svg>